<svg width="240" height="240" viewBox="0 0 240 240" fill="none" xmlns="http://www.w3.org/2000/svg">
<circle cx="120" cy="120" r="120" fill="#EF5A3C"/>
<g clip-path="url(#clip0_4311_7647)">
<path d="M142.933 48.1778C149.867 48 156.8 49.4222 163.2 52.2667C158.4 49.2445 153.245 46.7556 147.911 44.8C121.245 35.0222 91.2001 40 69.3334 57.9556C68.6223 58.4889 66.8445 60.0889 66.1334 60.8C65.4223 61.5111 63.8223 62.9333 63.1112 63.6445C62.2223 64.5333 61.1556 65.7778 60.2668 66.6667C59.5556 67.5556 58.1334 69.1556 57.6001 69.8667C56.889 70.9333 56.0001 72 55.4668 72.8889C54.9334 73.6 53.689 75.5556 52.9779 76.4445C52.8001 76.8 52.089 77.8667 51.9112 78.2222C51.7334 78.4 51.2001 79.4667 51.0223 79.6445C50.6668 80.1778 49.4223 82.4889 49.0668 83.0222C48.7112 83.9111 47.6445 85.8667 47.289 86.7556C46.9334 87.6445 46.2223 89.0667 45.8668 89.9556C45.689 90.3111 44.8001 92.8 44.6223 93.1556C44.2668 93.8667 43.9112 95.1111 43.7334 95.8222C43.2001 97.2444 42.8445 99.0222 42.3112 100.622C42.1334 101.511 41.6001 103.822 41.4223 104.711L41.2445 105.422C37.689 124.089 41.2445 143.822 50.8445 160.356C51.9112 161.956 53.1556 164.089 54.2223 165.689C54.7556 166.4 55.4668 167.467 56.0001 168L57.7779 170.311C58.3112 171.022 59.9112 172.8 60.4445 173.511C61.3334 174.4 62.4001 175.644 63.289 176.533C63.8223 177.067 64.7112 177.956 65.2445 178.489L66.3112 179.378L66.489 179.556L66.8445 179.733L67.3779 180.089C68.089 180.622 68.9779 181.156 69.689 181.689L70.2223 182.044C70.4001 182.222 70.5779 182.222 70.7556 182.4C71.4668 182.756 72.5334 183.467 73.0668 183.822C73.4223 184 73.9556 184.356 74.3112 184.533C74.6668 184.711 75.7334 185.244 76.2668 185.422C76.8001 185.778 77.689 185.956 78.2223 186.311C79.6445 186.844 81.0668 187.378 82.489 187.911C83.2001 188.089 84.089 188.444 84.8001 188.622C85.3334 188.8 86.4001 188.978 86.9334 189.156C87.4668 189.333 88.3557 189.333 89.0668 189.511C91.5557 189.867 93.8668 190.044 96.3557 190.044C102.222 189.867 108.089 188.622 113.422 186.311C124.8 181.511 134.222 171.911 138.667 160.178L139.2 158.933C139.378 158.578 139.733 157.333 139.911 156.978C140.267 155.911 140.622 154.667 140.8 153.6C140.8 153.244 140.978 152.533 141.156 152.178C141.511 150.222 141.867 147.911 141.867 145.956C141.867 145.422 141.867 144.356 141.867 143.822C141.867 143.822 141.867 143.644 141.867 143.467C140.267 143.467 138.845 143.289 137.245 143.111C112.889 140.622 94.4001 119.467 95.1112 94.7556C95.6445 68.6222 117.333 48 142.933 48.1778ZM82.1334 172.622C79.1112 170.844 76.089 168.711 73.6001 166.222C62.5779 155.556 55.1112 141.333 52.6223 126.044C48.0001 99.0222 59.2001 71.2889 81.4223 55.1111C93.8668 46.0445 109.511 41.0667 124.978 41.6C106.667 42.4889 88.7112 50.1333 75.7334 63.2889C59.5556 79.4667 51.9112 102.933 55.6445 125.511C58.1334 141.156 65.9556 156.089 77.689 166.756C89.7779 177.422 107.911 179.911 122.489 172.978C110.222 180.089 94.4001 179.733 82.1334 172.622ZM84.4445 153.244C55.8223 124.622 60.9779 76.0889 95.1112 54.0445C99.5557 51.2 104.356 48.8889 109.511 47.1111C117.511 44.4445 126.045 43.3778 134.4 44.0889C117.689 43.9111 101.156 50.3111 89.2445 61.6889C64.1779 85.1556 62.4001 124.622 85.3334 150.4C85.8668 150.933 86.7556 152 87.4668 152.711C98.3112 163.911 116.267 167.111 129.956 159.289C115.733 168.889 96.0001 165.511 84.4445 153.244ZM92.2668 132.089L93.689 134.222L95.289 136.356L97.0668 138.489C98.8445 140.444 100.622 142.4 102.756 144C111.111 150.578 122.845 153.244 133.156 149.689C126.4 152.711 118.578 152.889 111.467 150.756C105.067 148.8 99.5557 145.067 95.289 140.267C86.9334 131.378 81.7779 119.822 80.7112 107.733C77.1556 72.1778 107.911 41.9556 143.467 47.2889C135.289 46.9333 127.111 48 119.645 50.8445C117.689 51.5556 115.378 52.6222 113.6 53.6889C113.245 53.8667 112.178 54.4 111.822 54.5778C111.467 54.7556 110.4 55.4667 110.045 55.6445C109.333 56 108.445 56.7111 107.733 57.0667C107.022 57.6 106.133 58.1333 105.6 58.6667C82.489 75.5556 76.6223 107.911 92.2668 132.089Z" fill="black"/>
<path d="M169.778 181.867C170.489 181.333 172.267 179.733 172.978 179.022C173.689 178.311 175.289 176.889 176 176.178C176.889 175.289 177.956 174.045 178.845 173.156C179.556 172.267 180.978 170.667 181.511 169.956C182.222 169.067 183.111 168 183.645 167.111C184.178 166.4 185.422 164.444 186.133 163.556C186.311 163.2 187.022 162.133 187.2 161.778C187.378 161.6 187.911 160.533 188.089 160.356C188.445 159.822 189.689 157.511 190.045 156.978C190.4 156.089 191.467 154.133 191.822 153.244C192.178 152.356 192.889 150.933 193.245 150.045C193.422 149.689 194.311 147.2 194.489 146.844C194.845 146.133 195.2 144.889 195.378 144.178C195.911 142.756 196.267 140.978 196.8 139.378C196.978 138.489 197.511 136.178 197.689 135.289L197.867 134.578C201.422 115.911 197.867 96.1778 188.267 79.6445C187.2 78.0445 185.956 75.9112 184.889 74.3112C184.533 73.6001 183.645 72.7112 183.289 72.0001L181.511 69.6889C180.978 68.9778 179.378 67.2001 178.845 66.4889C177.956 65.6001 176.889 64.3556 176 63.4667C175.467 62.9334 174.578 62.0445 174.045 61.5112L172.978 60.6223L172.8 60.4445L172.445 60.2667L171.556 59.7334C170.845 59.2001 169.956 58.6667 169.245 58.1334L168.711 57.7778C168.533 57.6001 168.356 57.6001 168.178 57.4223C167.467 57.0667 166.4 56.3556 165.867 56.0001C165.511 55.8223 164.978 55.4667 164.622 55.2889C164.267 55.1112 163.2 54.5778 162.667 54.4001C162.133 54.0445 161.245 53.8667 160.711 53.5112C159.289 52.9778 157.867 52.4445 156.445 51.9112C155.733 51.7334 154.845 51.3778 154.133 51.2001C153.6 51.0223 152.533 50.8445 152 50.6667C151.467 50.4889 150.578 50.4889 149.867 50.3112C147.378 49.9556 145.067 49.7778 142.578 49.7778C136.711 49.9556 130.845 51.2001 125.511 53.5112C114.133 58.3112 104.711 67.9112 100.267 79.6445L99.7334 80.8889C99.5557 81.2445 99.2001 82.4889 99.0223 82.8445C98.6668 83.9112 98.3112 85.1556 98.1334 86.2223C98.1334 86.5778 97.9557 87.2889 97.7779 87.6445C97.4223 89.6001 97.0668 91.9112 97.0668 93.8667C97.0668 94.4001 97.0668 95.4667 97.0668 96.0001C97.0668 96.0001 97.0668 96.1778 97.0668 96.5334C123.378 96.7112 144.356 118.756 143.645 145.067C142.933 171.2 121.422 191.645 95.8223 191.645C88.889 191.822 81.9557 190.4 75.5557 187.556C80.3557 190.578 85.5112 193.067 90.8446 195.022C117.867 204.8 147.733 199.822 169.778 181.867ZM156.978 67.3778C160 69.1556 163.022 71.2889 165.511 73.7778C176.533 84.4445 184 98.6667 186.489 113.956C191.111 140.978 179.733 168.889 157.511 184.889C145.067 193.956 129.422 198.933 113.956 198.4C132.445 197.689 150.4 190.044 163.2 176.889C179.556 160.711 187.022 137.244 183.289 114.489C180.8 98.8445 172.978 83.9112 161.245 73.2445C149.156 62.5778 131.022 60.0889 116.445 67.0223C128.889 59.9112 144.711 60.2667 156.978 67.3778ZM154.667 86.7556C183.289 115.378 178.133 163.911 144 185.956C139.556 188.8 134.756 191.111 129.6 192.889C121.6 195.556 113.067 196.622 104.711 195.911C121.422 196.089 137.956 189.689 149.867 178.311C175.111 154.667 176.711 115.2 153.956 89.6001C153.422 89.0667 152.533 88.0001 151.822 87.2889C140.978 76.0889 123.022 72.8889 109.333 80.7112C123.378 71.1112 143.111 74.4889 154.667 86.7556ZM119.822 189.511C121.778 188.8 124.089 187.733 125.867 186.667C126.222 186.489 127.289 185.956 127.645 185.778C128 185.6 129.067 184.889 129.422 184.711C130.133 184.356 131.022 183.645 131.733 183.289C132.445 182.756 133.333 182.222 133.867 181.689C156.8 164.444 162.489 132.089 147.022 107.911L145.422 105.778L143.822 103.644L142.045 101.511C140.267 99.5556 138.489 97.6001 136.356 96.0001C128 89.4223 116.267 86.7556 105.956 90.3112C112.711 87.2889 120.533 87.1112 127.645 89.2445C134.045 91.2001 139.556 94.9334 143.822 99.7334C152.178 108.622 157.333 120.178 158.4 132.267C161.956 167.822 131.2 198.045 95.6446 192.711C104 193.6 112.178 192.356 119.822 189.511Z" fill="black"/>
<path d="M99.2001 96.8888C98.6668 96.8888 98.1334 96.7111 97.6001 96.7111C97.6001 96.7111 97.6001 96.7111 97.6001 96.8888C98.8445 96.8888 100.089 97.0666 101.333 97.2444C100.622 97.0666 99.9112 97.0666 99.2001 96.8888Z" fill="black"/>
</g>
<defs>
<clipPath id="clip0_4311_7647">
<rect width="160" height="160" fill="white" transform="translate(40 40)"/>
</clipPath>
</defs>
</svg>
